<svg xmlns="http://www.w3.org/2000/svg" viewBox="0 0 376.07 376.07"><defs><style>.cls-1{fill:#f1f2f1;}.cls-2{fill:#868686;}.cls-2,.cls-3{opacity:0.2;}.cls-3{fill:none;stroke:#7a7a7b;stroke-miterlimit:10;stroke-width:10px;}</style></defs><g id="Слой_2" data-name="Слой 2"><g id="Слой_1-2" data-name="Слой 1"><circle class="cls-1" cx="188.04" cy="188.04" r="183.04"/><path class="cls-2" d="M240.71,292.29A48.49,48.49,0,0,1,222.54,295v-1.64c0-10.3,0-20.6,0-30.9,0-5-4.94-8.12-9.18-5.75a6,6,0,0,0-3.17,5.68q0,15.45,0,30.9V295H192v-1.72c0-10.3,0-20.6,0-30.9a6.13,6.13,0,0,0-12.21-.95c-.1,1.23-.07,2.47-.07,3.71v28.56c0,.4,0,.81-.07,1.29h-18c0-.56-.09-1.13-.09-1.7q0-15.52,0-31a6.21,6.21,0,0,0-4.46-6.07,6,6,0,0,0-7,2.93,8.45,8.45,0,0,0-.85,3.68c-.06,10.16,0,20.32,0,30.49v2c-3.24-.26-6.33-.35-9.38-.8-2.57-.37-5.07-1.18-7.61-1.75-1-.21-1.17-.7-1.17-1.64q0-14.47,0-29a5.8,5.8,0,0,0-3.32-5.45,5.87,5.87,0,0,0-6.25.35,6.14,6.14,0,0,0-2.76,5.51q0,10.73,0,21.43v2a49,49,0,0,1-15.33-17.66,47.87,47.87,0,0,1-5.43-22.62h1.82q31.86,0,63.71,0a6.29,6.29,0,0,0,5.87-3.12,6.18,6.18,0,0,0-5-9.25c-.59,0-1.19,0-1.78,0H98V219.85h65.54c3.29,0,5.74-1.79,6.44-4.67a6.21,6.21,0,0,0-5.79-7.66c-1.23,0-2.47,0-3.71,0H97.91V194.2c.6,0,1.21-.08,1.83-.08h62.62a13.55,13.55,0,0,0,3.13-.22A6.14,6.14,0,0,0,164,181.8c-5.63-.06-11.26,0-16.89,0H97.91V168.39h65.65c4.33,0,7.34-3.63,6.37-7.64a6.08,6.08,0,0,0-6-4.71c-5.17,0-10.35,0-15.52,0H97.93v-13.4h65.58a6.18,6.18,0,0,0,1-12.31c-.69-.06-1.38,0-2.06,0H97.9a45.94,45.94,0,0,1,3.2-17.72A49.52,49.52,0,0,1,118.63,90v1.84c0,7.28,0,14.56,0,21.84a6.16,6.16,0,1,0,12.32.06c0-9.56,0-19.13,0-28.7a1.64,1.64,0,0,1,1.39-1.9,50.37,50.37,0,0,1,15.56-2.26c.35,0,.71,0,1.22.08v1.67q0,15.39,0,30.77c0,3.92,2.69,6.65,6.37,6.57a6.09,6.09,0,0,0,6-5.68c0-.46,0-.92,0-1.38V80.93h18.19v1.65c0,10.21,0,20.41,0,30.62,0,2.76,1,4.89,3.55,6.14a6.09,6.09,0,0,0,8.7-4.84c.05-.55.05-1.1.05-1.65V80.92h18.23V113.6a6.16,6.16,0,0,0,9.86,5.09,6.15,6.15,0,0,0,2.47-5.25q0-15.39,0-30.76V80.82h2.24a49.93,49.93,0,0,1,14.71,2.34,1.49,1.49,0,0,1,1.24,1.73q0,14.43,0,28.84a6.11,6.11,0,0,0,4.53,6,6,6,0,0,0,6.92-2.9,8.58,8.58,0,0,0,.84-3.67c.08-7.19,0-14.38,0-21.56V90.21c10.76,4.93,22.87,28.53,20.57,40.06H208.17a6.14,6.14,0,0,0-6,3.55,5.8,5.8,0,0,0,.82,6.55,6.17,6.17,0,0,0,5.08,2.27h65.7v13.41H208.14c-3.29,0-5.73,1.8-6.41,4.69a6.22,6.22,0,0,0,6.35,7.66h64.26c.45,0,.89,0,1.42.06v13.25c-.55,0-1.08.07-1.6.07l-63.86,0c-3.61,0-6.17,2-6.71,5.37a6.15,6.15,0,0,0,4.31,6.68,7.44,7.44,0,0,0,2.16.26q31.8,0,63.58,0h2.11v13.4H207.94a6.25,6.25,0,0,0-6.37,5.46,6.13,6.13,0,0,0,4.41,6.61,10,10,0,0,0,2.84.28q31.73,0,63.45,0h1.47v13.4H208a6.06,6.06,0,0,0-5.93,3.66,5.83,5.83,0,0,0,.94,6.54,6.2,6.2,0,0,0,5.12,2.16q27.47,0,54.93,0h10.51c2.23,11.64-9.75,35-20.58,40.07,0-.65,0-1.22,0-1.8,0-7.19,0-14.37,0-21.56,0-5-4.95-7.94-9.16-5.58a5.94,5.94,0,0,0-3.16,5.55q0,14.2,0,28.42Z"/><circle class="cls-3" cx="188.04" cy="188.04" r="183.04"/></g></g></svg>